<svg width="45" height="45" viewBox="0 0 45 45" fill="none" xmlns="http://www.w3.org/2000/svg">
<circle cx="22.2893" cy="22.682" r="22.2703" fill="#E0F4FE"/>
<path opacity="0.5" d="M33.1996 20.5H11.3799V30.3189C11.3799 31.1869 11.7247 32.0194 12.3385 32.6332C12.9523 33.247 13.7848 33.5919 14.6528 33.5919H29.9266C30.7947 33.5919 31.6272 33.247 32.241 32.6332C32.8548 32.0194 33.1996 31.1869 33.1996 30.3189V20.5ZM16.8348 18.3181C16.5455 18.3181 16.268 18.2031 16.0634 17.9985C15.8588 17.7939 15.7438 17.5164 15.7438 17.2271V12.8631C15.7438 12.5738 15.8588 12.2963 16.0634 12.0917C16.268 11.8871 16.5455 11.7722 16.8348 11.7722C17.1242 11.7722 17.4016 11.8871 17.6062 12.0917C17.8108 12.2963 17.9258 12.5738 17.9258 12.8631V17.2271C17.9258 17.5164 17.8108 17.7939 17.6062 17.9985C17.4016 18.2031 17.1242 18.3181 16.8348 18.3181ZM27.7447 18.3181C27.4553 18.3181 27.1778 18.2031 26.9732 17.9985C26.7686 17.7939 26.6537 17.5164 26.6537 17.2271V12.8631C26.6537 12.5738 26.7686 12.2963 26.9732 12.0917C27.1778 11.8871 27.4553 11.7722 27.7447 11.7722C28.034 11.7722 28.3115 11.8871 28.5161 12.0917C28.7207 12.2963 28.8356 12.5738 28.8356 12.8631V17.2271C28.8356 17.5164 28.7207 17.7939 28.5161 17.9985C28.3115 18.2031 28.034 18.3181 27.7447 18.3181Z" fill="#0D6EFD"/>
<path d="M29.9266 13.9541H28.8356V17.2271C28.8356 17.5164 28.7207 17.7939 28.5161 17.9985C28.3115 18.2031 28.034 18.318 27.7447 18.318C27.4553 18.318 27.1778 18.2031 26.9732 17.9985C26.7686 17.7939 26.6537 17.5164 26.6537 17.2271V13.9541H17.9258V17.2271C17.9258 17.5164 17.8108 17.7939 17.6062 17.9985C17.4016 18.2031 17.1242 18.318 16.8348 18.318C16.5455 18.318 16.268 18.2031 16.0634 17.9985C15.8588 17.7939 15.7438 17.5164 15.7438 17.2271V13.9541H14.6528C13.7848 13.9541 12.9523 14.2989 12.3385 14.9127C11.7247 15.5265 11.3799 16.359 11.3799 17.2271V20.5H33.1996V17.2271C33.1996 16.359 32.8548 15.5265 32.241 14.9127C31.6272 14.2989 30.7947 13.9541 29.9266 13.9541Z" fill="#0D6EFD"/>
</svg>
