<svg width="45" height="45" viewBox="0 0 45 45" fill="none" xmlns="http://www.w3.org/2000/svg">
<circle cx="22.3752" cy="22.682" r="22.2703" fill="#E0F4FE"/>
<path d="M22.3752 22.1365C21.6518 22.1365 20.9581 21.8492 20.4466 21.3377C19.9351 20.8262 19.6477 20.1324 19.6477 19.409C19.6477 18.6857 19.9351 17.9919 20.4466 17.4804C20.9581 16.9689 21.6518 16.6816 22.3752 16.6816C23.0985 16.6816 23.7923 16.9689 24.3038 17.4804C24.8153 17.9919 25.1026 18.6857 25.1026 19.409C25.1026 19.7672 25.0321 20.1219 24.895 20.4528C24.758 20.7837 24.557 21.0844 24.3038 21.3377C24.0505 21.5909 23.7498 21.7918 23.4189 21.9289C23.088 22.066 22.7334 22.1365 22.3752 22.1365ZM22.3752 11.7722C20.3497 11.7722 18.4073 12.5768 16.9751 14.0089C15.5429 15.4411 14.7383 17.3836 14.7383 19.409C14.7383 25.1367 22.3752 33.5919 22.3752 33.5919C22.3752 33.5919 30.0121 25.1367 30.0121 19.409C30.0121 17.3836 29.2075 15.4411 27.7753 14.0089C26.3431 12.5768 24.4006 11.7722 22.3752 11.7722Z" fill="#0D6EFD"/>
</svg>
