<svg width="175" height="63" viewBox="0 0 175 63" fill="none" xmlns="http://www.w3.org/2000/svg">
<path d="M29.9094 16.3373V12.2667C29.9094 11.9068 30.0523 11.5617 30.3068 11.3072C30.5612 11.0527 30.9064 10.9098 31.2662 10.9098C31.6261 10.9098 31.9712 11.0527 32.2257 11.3072C32.4802 11.5617 32.6231 11.9068 32.6231 12.2667V16.3373C32.6231 16.6972 32.4802 17.0423 32.2257 17.2968C31.9712 17.5512 31.6261 17.6942 31.2662 17.6942C30.9064 17.6942 30.5612 17.5512 30.3068 17.2968C30.0523 17.0423 29.9094 16.6972 29.9094 16.3373ZM42.1213 31.2629C42.1213 33.4099 41.4846 35.5086 40.2919 37.2937C39.0991 39.0788 37.4038 40.4701 35.4203 41.2917C33.4368 42.1133 31.2542 42.3282 29.1485 41.9094C27.0429 41.4905 25.1087 40.4567 23.5906 38.9386C22.0725 37.4205 21.0386 35.4863 20.6198 33.3807C20.201 31.275 20.4159 29.0924 21.2375 27.1089C22.0591 25.1254 23.4504 23.4301 25.2355 22.2373C27.0206 21.0446 29.1193 20.4079 31.2662 20.4079C34.1442 20.4111 36.9034 21.5557 38.9384 23.5908C40.9735 25.6258 42.1181 28.385 42.1213 31.2629ZM39.4075 31.2629C39.4075 29.6528 38.93 28.0787 38.0354 26.7399C37.1409 25.4011 35.8694 24.3576 34.3818 23.7414C32.8941 23.1252 31.2572 22.964 29.678 23.2781C28.0987 23.5922 26.6481 24.3676 25.5095 25.5062C24.3709 26.6448 23.5955 28.0954 23.2814 29.6747C22.9673 31.2539 23.1285 32.8908 23.7447 34.3785C24.3609 35.8661 25.4044 37.1376 26.7432 38.0322C28.082 38.9267 29.656 39.4042 31.2662 39.4042C33.4247 39.402 35.4942 38.5435 37.0205 37.0172C38.5468 35.4909 39.4053 33.4214 39.4075 31.2629ZM19.4512 21.3679C19.7058 21.6225 20.0512 21.7656 20.4112 21.7656C20.7713 21.7656 21.1166 21.6225 21.3712 21.3679C21.6258 21.1133 21.7689 20.768 21.7689 20.4079C21.7689 20.0479 21.6258 19.7025 21.3712 19.4479L18.6575 16.7342C18.4029 16.4796 18.0575 16.3365 17.6975 16.3365C17.3374 16.3365 16.9921 16.4796 16.7375 16.7342C16.4829 16.9888 16.3398 17.3341 16.3398 17.6942C16.3398 18.0542 16.4829 18.3996 16.7375 18.6542L19.4512 21.3679ZM19.4512 41.158L16.7375 43.8717C16.4829 44.1263 16.3398 44.4716 16.3398 44.8317C16.3398 45.1918 16.4829 45.5371 16.7375 45.7917C16.9921 46.0463 17.3374 46.1893 17.6975 46.1893C18.0575 46.1893 18.4029 46.0463 18.6575 45.7917L21.3712 43.0779C21.4973 42.9519 21.5973 42.8022 21.6655 42.6375C21.7337 42.4728 21.7689 42.2962 21.7689 42.118C21.7689 41.9397 21.7337 41.7631 21.6655 41.5984C21.5973 41.4337 21.4973 41.284 21.3712 41.158C21.2451 41.0319 21.0955 40.9319 20.9308 40.8637C20.7661 40.7954 20.5895 40.7603 20.4112 40.7603C20.2329 40.7603 20.0564 40.7954 19.8917 40.8637C19.727 40.9319 19.5773 41.0319 19.4512 41.158ZM42.1213 21.7648C42.2995 21.7649 42.476 21.73 42.6407 21.6619C42.8055 21.5938 42.9551 21.4939 43.0812 21.3679L45.795 18.6542C46.0496 18.3996 46.1926 18.0542 46.1926 17.6942C46.1926 17.3341 46.0496 16.9888 45.795 16.7342C45.5404 16.4796 45.1951 16.3365 44.835 16.3365C44.4749 16.3365 44.1296 16.4796 43.875 16.7342L41.1613 19.4479C40.9713 19.6377 40.8419 19.8796 40.7894 20.1429C40.737 20.4063 40.7639 20.6793 40.8667 20.9273C40.9694 21.1754 41.1435 21.3874 41.3669 21.5365C41.5902 21.6856 41.8527 21.765 42.1213 21.7648ZM43.0812 41.158C42.8266 40.9034 42.4813 40.7603 42.1213 40.7603C41.7612 40.7603 41.4159 40.9034 41.1613 41.158C40.9067 41.4126 40.7636 41.7579 40.7636 42.118C40.7636 42.478 40.9067 42.8233 41.1613 43.0779L43.875 45.7917C44.0011 45.9178 44.1507 46.0178 44.3155 46.086C44.4802 46.1542 44.6567 46.1893 44.835 46.1893C45.0133 46.1893 45.1898 46.1542 45.3545 46.086C45.5193 46.0178 45.6689 45.9178 45.795 45.7917C45.9211 45.6656 46.0211 45.516 46.0893 45.3513C46.1575 45.1865 46.1926 45.01 46.1926 44.8317C46.1926 44.6534 46.1575 44.4769 46.0893 44.3122C46.0211 44.1475 45.9211 43.9978 45.795 43.8717L43.0812 41.158ZM17.6975 31.2629C17.6975 30.9031 17.5545 30.558 17.3 30.3035C17.0456 30.049 16.7005 29.9061 16.3406 29.9061H12.27C11.9101 29.9061 11.565 30.049 11.3105 30.3035C11.056 30.558 10.9131 30.9031 10.9131 31.2629C10.9131 31.6228 11.056 31.9679 11.3105 32.2224C11.565 32.4769 11.9101 32.6198 12.27 32.6198H16.3406C16.7005 32.6198 17.0456 32.4769 17.3 32.2224C17.5545 31.9679 17.6975 31.6228 17.6975 31.2629ZM31.2662 44.8317C30.9064 44.8317 30.5612 44.9747 30.3068 45.2291C30.0523 45.4836 29.9094 45.8287 29.9094 46.1886V50.2592C29.9094 50.6191 30.0523 50.9642 30.3068 51.2187C30.5612 51.4731 30.9064 51.6161 31.2662 51.6161C31.6261 51.6161 31.9712 51.4731 32.2257 51.2187C32.4802 50.9642 32.6231 50.6191 32.6231 50.2592V46.1886C32.6231 45.8287 32.4802 45.4836 32.2257 45.2291C31.9712 44.9747 31.6261 44.8317 31.2662 44.8317ZM50.2625 29.9061H46.1919C45.832 29.9061 45.4869 30.049 45.2324 30.3035C44.978 30.558 44.835 30.9031 44.835 31.2629C44.835 31.6228 44.978 31.9679 45.2324 32.2224C45.4869 32.4769 45.832 32.6198 46.1919 32.6198H50.2625C50.6224 32.6198 50.9675 32.4769 51.222 32.2224C51.4764 31.9679 51.6194 31.6228 51.6194 31.2629C51.6194 30.9031 51.4764 30.558 51.222 30.3035C50.9675 30.049 50.6224 29.9061 50.2625 29.9061Z" fill="#1D75FB"/>
<path d="M61.1654 29.2174V16.5223H64.6119V21.4813H69.1742V16.5223H72.6207V29.2174H69.1742V24.2584H64.6119V29.2174H61.1654ZM78.8939 29.391C77.8608 29.391 76.9764 29.1864 76.2408 28.7773C75.5052 28.364 74.9412 27.7896 74.5486 27.054C74.156 26.3143 73.9597 25.4568 73.9597 24.4815C73.9597 23.5063 74.156 22.6508 74.5486 21.9152C74.9412 21.1755 75.5052 20.6011 76.2408 20.192C76.9764 19.7787 77.8608 19.5721 78.8939 19.5721C79.927 19.5721 80.8114 19.7787 81.547 20.192C82.2826 20.6011 82.8467 21.1755 83.2393 21.9152C83.6318 22.6508 83.8281 23.5063 83.8281 24.4815C83.8281 25.4568 83.6318 26.3143 83.2393 27.054C82.8467 27.7896 82.2826 28.364 81.547 28.7773C80.8114 29.1864 79.927 29.391 78.8939 29.391ZM78.9187 26.8619C79.208 26.8619 79.458 26.7648 79.6688 26.5705C79.8795 26.3763 80.0428 26.0994 80.1585 25.7399C80.2742 25.3804 80.332 24.9526 80.332 24.4567C80.332 23.9567 80.2742 23.529 80.1585 23.1736C80.0428 22.8141 79.8795 22.5372 79.6688 22.343C79.458 22.1487 79.208 22.0516 78.9187 22.0516C78.6129 22.0516 78.3505 22.1487 78.1315 22.343C77.9124 22.5372 77.7451 22.8141 77.6294 23.1736C77.5136 23.529 77.4558 23.9567 77.4558 24.4567C77.4558 24.9526 77.5136 25.3804 77.6294 25.7399C77.7451 26.0994 77.9124 26.3763 78.1315 26.5705C78.3505 26.7648 78.6129 26.8619 78.9187 26.8619ZM90.8947 19.6961V22.1756H84.6216V19.6961H90.8947ZM85.8365 17.4149H89.2583V26.1552C89.2583 26.2875 89.281 26.399 89.3265 26.4899C89.3719 26.5767 89.4422 26.6428 89.5372 26.6883C89.6323 26.7296 89.7542 26.7503 89.9029 26.7503C90.0063 26.7503 90.1261 26.7379 90.2625 26.7131C90.403 26.6883 90.5063 26.6676 90.5724 26.6511L91.0683 29.0562C90.9154 29.1017 90.6964 29.1575 90.4112 29.2236C90.1302 29.2897 89.7955 29.3331 89.407 29.3538C88.6219 29.3951 87.9627 29.3145 87.4296 29.112C86.8965 28.9054 86.4957 28.581 86.2271 28.1388C85.9585 27.6966 85.8283 27.1429 85.8365 26.4775V17.4149ZM96.751 29.391C95.7344 29.391 94.8583 29.1967 94.1228 28.8083C93.3913 28.4157 92.8272 27.8537 92.4305 27.1222C92.0379 26.3866 91.8416 25.5064 91.8416 24.4815C91.8416 23.498 92.04 22.6384 92.4367 21.9028C92.8334 21.1673 93.3934 20.5949 94.1166 20.1858C94.8397 19.7767 95.6931 19.5721 96.6767 19.5721C97.3957 19.5721 98.0466 19.6837 98.6293 19.9068C99.212 20.13 99.7099 20.4544 100.123 20.8801C100.536 21.3016 100.855 21.814 101.078 22.4173C101.301 23.0207 101.413 23.7005 101.413 24.4567V25.2502H92.9078V23.3658H98.2635C98.2594 23.093 98.1892 22.8533 98.0528 22.6467C97.9205 22.4359 97.7408 22.2727 97.5135 22.157C97.2903 22.0372 97.0362 21.9772 96.751 21.9772C96.4742 21.9772 96.22 22.0372 95.9886 22.157C95.7572 22.2727 95.5712 22.4339 95.4307 22.6405C95.2943 22.8471 95.222 23.0889 95.2137 23.3658V25.399C95.2137 25.7048 95.2778 25.9775 95.4059 26.2172C95.534 26.4569 95.7179 26.6449 95.9576 26.7813C96.1973 26.9177 96.4866 26.9858 96.8254 26.9858C97.061 26.9858 97.2759 26.9528 97.4701 26.8867C97.6685 26.8205 97.8379 26.7255 97.9784 26.6015C98.1189 26.4734 98.2222 26.3205 98.2883 26.1428H101.413C101.305 26.804 101.051 27.3784 100.65 27.8661C100.249 28.3496 99.7182 28.7256 99.057 28.9943C98.3999 29.2587 97.6313 29.391 96.751 29.391ZM106.231 16.5223V29.2174H102.809V16.5223H106.231Z" fill="#1D75FB"/>
<path d="M107.924 29.2174V16.5223H111.371V21.4813H115.933V16.5223H119.38V29.2174H115.933V24.2584H111.371V29.2174H107.924ZM123.719 29.3662C123.111 29.3662 122.574 29.267 122.107 29.0686C121.644 28.8661 121.281 28.5603 121.016 28.1512C120.752 27.7421 120.619 27.2214 120.619 26.5891C120.619 26.0684 120.708 25.6242 120.886 25.2564C121.064 24.8845 121.312 24.5807 121.63 24.3452C121.948 24.1096 122.318 23.9298 122.739 23.8059C123.165 23.6819 123.624 23.6013 124.116 23.5641C124.649 23.5228 125.076 23.4732 125.399 23.4154C125.725 23.3534 125.961 23.2686 126.105 23.1612C126.25 23.0496 126.322 22.9029 126.322 22.7211V22.6963C126.322 22.4483 126.227 22.2582 126.037 22.126C125.847 21.9938 125.603 21.9276 125.306 21.9276C124.979 21.9276 124.713 22 124.506 22.1446C124.304 22.2851 124.182 22.5021 124.14 22.7955H120.991C121.033 22.2169 121.217 21.6838 121.543 21.1962C121.874 20.7044 122.355 20.3118 122.987 20.0184C123.62 19.7209 124.409 19.5721 125.355 19.5721C126.037 19.5721 126.649 19.6527 127.19 19.8139C127.731 19.9709 128.192 20.192 128.572 20.4771C128.953 20.7581 129.242 21.0887 129.44 21.4689C129.643 21.845 129.744 22.2541 129.744 22.6963V29.2174H126.545V27.8785H126.471C126.281 28.2339 126.05 28.5211 125.777 28.7401C125.508 28.9591 125.2 29.1182 124.853 29.2174C124.51 29.3166 124.132 29.3662 123.719 29.3662ZM124.835 27.209C125.095 27.209 125.339 27.1553 125.566 27.0478C125.797 26.9404 125.986 26.7854 126.13 26.5829C126.275 26.3804 126.347 26.1345 126.347 25.8453V25.0518C126.256 25.089 126.159 25.1241 126.056 25.1572C125.957 25.1903 125.849 25.2213 125.733 25.2502C125.622 25.2791 125.502 25.306 125.374 25.3308C125.25 25.3556 125.12 25.3783 124.983 25.399C124.719 25.4403 124.502 25.5085 124.332 25.6035C124.167 25.6944 124.043 25.8081 123.961 25.9445C123.882 26.0767 123.843 26.2255 123.843 26.3908C123.843 26.6552 123.936 26.8577 124.122 26.9982C124.308 27.1388 124.545 27.209 124.835 27.209ZM140.634 19.6961L137.435 29.2174H133.468L130.269 19.6961H133.865L135.402 25.994H135.501L137.038 19.6961H140.634ZM145.879 29.391C144.863 29.391 143.987 29.1967 143.251 28.8083C142.52 28.4157 141.956 27.8537 141.559 27.1222C141.166 26.3866 140.97 25.5064 140.97 24.4815C140.97 23.498 141.168 22.6384 141.565 21.9028C141.962 21.1673 142.522 20.5949 143.245 20.1858C143.968 19.7767 144.822 19.5721 145.805 19.5721C146.524 19.5721 147.175 19.6837 147.758 19.9068C148.34 20.13 148.838 20.4544 149.252 20.8801C149.665 21.3016 149.983 21.814 150.206 22.4173C150.429 23.0207 150.541 23.7005 150.541 24.4567V25.2502H142.036V23.3658H147.392C147.388 23.093 147.318 22.8533 147.181 22.6467C147.049 22.4359 146.869 22.2727 146.642 22.157C146.419 22.0372 146.165 21.9772 145.879 21.9772C145.603 21.9772 145.348 22.0372 145.117 22.157C144.886 22.2727 144.7 22.4339 144.559 22.6405C144.423 22.8471 144.35 23.0889 144.342 23.3658V25.399C144.342 25.7048 144.406 25.9775 144.534 26.2172C144.662 26.4569 144.846 26.6449 145.086 26.7813C145.326 26.9177 145.615 26.9858 145.954 26.9858C146.189 26.9858 146.404 26.9528 146.599 26.8867C146.797 26.8205 146.966 26.7255 147.107 26.6015C147.247 26.4734 147.351 26.3205 147.417 26.1428H150.541C150.433 26.804 150.179 27.3784 149.778 27.8661C149.378 28.3496 148.847 28.7256 148.185 28.9943C147.528 29.2587 146.76 29.391 145.879 29.391ZM155.359 23.8617V29.2174H151.937V19.6961H155.185V21.5061H155.285C155.491 20.9028 155.855 20.4296 156.376 20.0866C156.9 19.7436 157.512 19.5721 158.21 19.5721C158.884 19.5721 159.469 19.7271 159.965 20.037C160.465 20.3428 160.851 20.7643 161.124 21.3016C161.401 21.8388 161.537 22.4525 161.533 23.1426V29.2174H158.111V23.8617C158.115 23.3906 157.995 23.0207 157.752 22.7521C157.512 22.4835 157.177 22.3492 156.747 22.3492C156.466 22.3492 156.221 22.4111 156.01 22.5351C155.803 22.655 155.644 22.8285 155.532 23.0558C155.421 23.279 155.363 23.5476 155.359 23.8617Z" fill="#F65B28"/>
<path d="M60.6587 37.787H62.2905L64.7777 42.1153H64.88L67.3673 37.787H68.9991L65.5448 43.5705V47.3083H64.1129V43.5705L60.6587 37.787ZM72.0756 47.4525C71.4062 47.4525 70.8219 47.2991 70.3229 46.9922C69.8239 46.6854 69.4365 46.2561 69.1607 45.7044C68.8848 45.1527 68.7469 44.5081 68.7469 43.7704C68.7469 43.0296 68.8848 42.3819 69.1607 41.8271C69.4365 41.2723 69.8239 40.8415 70.3229 40.5346C70.8219 40.2278 71.4062 40.0744 72.0756 40.0744C72.7451 40.0744 73.3293 40.2278 73.8283 40.5346C74.3273 40.8415 74.7148 41.2723 74.9906 41.8271C75.2665 42.3819 75.4044 43.0296 75.4044 43.7704C75.4044 44.5081 75.2665 45.1527 74.9906 45.7044C74.7148 46.2561 74.3273 46.6854 73.8283 46.9922C73.3293 47.2991 72.7451 47.4525 72.0756 47.4525ZM72.0803 46.2856C72.5142 46.2856 72.8737 46.1709 73.1589 45.9415C73.444 45.7122 73.6548 45.4069 73.7912 45.0256C73.9306 44.6444 74.0004 44.2245 74.0004 43.7657C74.0004 43.3101 73.9306 42.8917 73.7912 42.5105C73.6548 42.1262 73.444 41.8178 73.1589 41.5853C72.8737 41.3529 72.5142 41.2366 72.0803 41.2366C71.6433 41.2366 71.2806 41.3529 70.9924 41.5853C70.7073 41.8178 70.495 42.1262 70.3555 42.5105C70.2191 42.8917 70.1509 43.3101 70.1509 43.7657C70.1509 44.2245 70.2191 44.6444 70.3555 45.0256C70.495 45.4069 70.7073 45.7122 70.9924 45.9415C71.2806 46.1709 71.6433 46.2856 72.0803 46.2856ZM81.4796 44.3469V40.1674H82.8743V47.3083H81.5075V46.0717H81.4331C81.2688 46.4529 81.0054 46.7706 80.6427 47.0248C80.2832 47.2758 79.8353 47.4013 79.2992 47.4013C78.8404 47.4013 78.4344 47.3006 78.0811 47.0991C77.7309 46.8946 77.455 46.5924 77.2536 46.1926C77.0552 45.7927 76.956 45.2984 76.956 44.7095V40.1674H78.3461V44.5421C78.3461 45.0287 78.4809 45.4162 78.7506 45.7044C79.0202 45.9927 79.3704 46.1368 79.8013 46.1368C80.0616 46.1368 80.3204 46.0717 80.5777 45.9415C80.838 45.8113 81.0534 45.6145 81.2239 45.3511C81.3974 45.0876 81.4827 44.7529 81.4796 44.3469ZM84.7421 47.3083V40.1674H86.0857V41.3017H86.16C86.2902 40.9174 86.5196 40.6152 86.8481 40.3952C87.1797 40.172 87.5548 40.0604 87.9732 40.0604C88.06 40.0604 88.1622 40.0635 88.28 40.0697C88.4009 40.0759 88.4954 40.0837 88.5636 40.093V41.4226C88.5078 41.4071 88.4086 41.3901 88.2661 41.3715C88.1235 41.3498 87.9809 41.3389 87.8384 41.3389C87.5098 41.3389 87.2169 41.4087 86.9597 41.5481C86.7055 41.6845 86.5041 41.8751 86.3553 42.12C86.2065 42.3617 86.1321 42.6376 86.1321 42.9475V47.3083H84.7421ZM94.6214 43.0684V47.3083H93.2313V40.1674H94.5656V41.3296H94.6539C94.8182 40.9515 95.0754 40.6478 95.4257 40.4184C95.779 40.1891 96.2238 40.0744 96.7599 40.0744C97.2466 40.0744 97.6727 40.1767 98.0384 40.3812C98.4042 40.5827 98.6878 40.8833 98.8892 41.2831C99.0907 41.683 99.1914 42.1773 99.1914 42.7662V47.3083H97.8013V42.9336C97.8013 42.416 97.6665 42.0115 97.3969 41.7202C97.1272 41.4257 96.7568 41.2785 96.2857 41.2785C95.9634 41.2785 95.6767 41.3482 95.4257 41.4877C95.1777 41.6272 94.9809 41.8317 94.8352 42.1014C94.6927 42.3679 94.6214 42.6903 94.6214 43.0684ZM104.133 47.4525C103.43 47.4525 102.824 47.3022 102.316 47.0015C101.81 46.6978 101.42 46.2716 101.144 45.723C100.871 45.1713 100.735 44.5251 100.735 43.7843C100.735 43.0529 100.871 42.4082 101.144 41.8503C101.42 41.2924 101.804 40.857 102.297 40.5439C102.793 40.2309 103.372 40.0744 104.036 40.0744C104.439 40.0744 104.829 40.141 105.207 40.2743C105.585 40.4076 105.925 40.6168 106.225 40.9019C106.526 41.1871 106.763 41.5574 106.937 42.013C107.11 42.4656 107.197 43.0157 107.197 43.6635V44.1563H101.521V43.1149H105.835C105.835 42.7491 105.761 42.4253 105.612 42.1432C105.463 41.8581 105.254 41.6334 104.984 41.4691C104.718 41.3048 104.405 41.2227 104.045 41.2227C103.655 41.2227 103.314 41.3188 103.022 41.5109C102.734 41.7 102.511 41.948 102.353 42.2548C102.198 42.5585 102.12 42.8886 102.12 43.2451V44.0586C102.12 44.5359 102.204 44.942 102.371 45.2767C102.542 45.6114 102.779 45.8671 103.083 46.0438C103.386 46.2174 103.741 46.3041 104.147 46.3041C104.411 46.3041 104.651 46.267 104.868 46.1926C105.085 46.1151 105.272 46.0004 105.43 45.8485C105.589 45.6967 105.709 45.5092 105.793 45.286L107.109 45.5231C107.003 45.9105 106.814 46.2499 106.542 46.5413C106.272 46.8295 105.933 47.0542 105.523 47.2154C105.117 47.3734 104.654 47.4525 104.133 47.4525ZM109.67 40.1674L111.246 42.9475L112.836 40.1674H114.357L112.13 43.7379L114.375 47.3083H112.855L111.246 44.6398L109.643 47.3083H108.118L110.34 43.7379L108.146 40.1674H109.67ZM119.117 40.1674V41.2831H115.217V40.1674H119.117ZM116.263 38.4565H117.653V45.2116C117.653 45.4813 117.693 45.6843 117.774 45.8206C117.854 45.9539 117.958 46.0453 118.085 46.0949C118.215 46.1414 118.356 46.1647 118.508 46.1647C118.62 46.1647 118.718 46.1569 118.801 46.1414C118.885 46.1259 118.95 46.1135 118.997 46.1042L119.248 47.2526C119.167 47.2836 119.052 47.3145 118.904 47.3455C118.755 47.3796 118.569 47.3982 118.346 47.4013C117.98 47.4075 117.639 47.3424 117.323 47.2061C117.007 47.0697 116.751 46.8589 116.556 46.5738C116.36 46.2887 116.263 45.9307 116.263 45.4999V38.4565ZM129.471 41.9108L128.211 42.1339C128.158 41.9728 128.075 41.8193 127.96 41.6737C127.848 41.528 127.696 41.4087 127.504 41.3157C127.312 41.2227 127.072 41.1762 126.784 41.1762C126.39 41.1762 126.062 41.2645 125.798 41.4412C125.535 41.6148 125.403 41.8395 125.403 42.1153C125.403 42.354 125.491 42.5461 125.668 42.6918C125.845 42.8375 126.13 42.9568 126.523 43.0498L127.658 43.3101C128.315 43.462 128.805 43.696 129.127 44.0121C129.449 44.3283 129.61 44.739 129.61 45.2442C129.61 45.6719 129.486 46.0531 129.238 46.3878C128.994 46.7195 128.651 46.9798 128.211 47.1689C127.774 47.3579 127.267 47.4525 126.691 47.4525C125.891 47.4525 125.239 47.282 124.733 46.9411C124.228 46.597 123.918 46.1089 123.804 45.4766L125.147 45.2721C125.231 45.6223 125.403 45.8873 125.663 46.067C125.924 46.2437 126.263 46.332 126.681 46.332C127.137 46.332 127.501 46.2375 127.774 46.0484C128.047 45.8563 128.183 45.6223 128.183 45.3464C128.183 45.1233 128.099 44.9358 127.932 44.7839C127.768 44.632 127.515 44.5173 127.174 44.4399L125.965 44.1749C125.299 44.023 124.806 43.7812 124.487 43.4496C124.171 43.118 124.013 42.698 124.013 42.1897C124.013 41.7682 124.131 41.3994 124.366 41.0832C124.602 40.7671 124.927 40.5207 125.343 40.344C125.758 40.1643 126.234 40.0744 126.77 40.0744C127.542 40.0744 128.149 40.2417 128.592 40.5765C129.035 40.9081 129.328 41.3529 129.471 41.9108ZM131.139 49.9862V40.1674H132.496V41.325H132.613C132.693 41.1762 132.809 41.0042 132.961 40.8089C133.113 40.6137 133.324 40.4432 133.593 40.2975C133.863 40.1488 134.22 40.0744 134.663 40.0744C135.239 40.0744 135.754 40.22 136.206 40.5114C136.659 40.8027 137.014 41.2227 137.271 41.7713C137.531 42.3199 137.661 42.9801 137.661 43.7518C137.661 44.5235 137.533 45.1853 137.276 45.737C137.018 46.2856 136.665 46.7086 136.216 47.0062C135.766 47.3006 135.253 47.4478 134.677 47.4478C134.243 47.4478 133.888 47.375 133.612 47.2293C133.339 47.0836 133.125 46.9132 132.97 46.7179C132.816 46.5227 132.696 46.3491 132.613 46.1972H132.529V49.9862H131.139ZM132.501 43.7379C132.501 44.24 132.574 44.6801 132.719 45.0582C132.865 45.4363 133.076 45.7323 133.352 45.9462C133.628 46.1569 133.965 46.2623 134.365 46.2623C134.781 46.2623 135.128 46.1523 135.407 45.9322C135.686 45.7091 135.896 45.4069 136.039 45.0256C136.185 44.6444 136.257 44.2152 136.257 43.7379C136.257 43.2667 136.186 42.8437 136.044 42.4687C135.904 42.0936 135.693 41.7976 135.411 41.5807C135.132 41.3637 134.784 41.2552 134.365 41.2552C133.962 41.2552 133.621 41.3591 133.342 41.5667C133.067 41.7744 132.857 42.0642 132.715 42.4361C132.572 42.808 132.501 43.242 132.501 43.7379ZM141.297 47.4664C140.844 47.4664 140.435 47.3827 140.07 47.2154C139.704 47.0449 139.414 46.7985 139.2 46.4762C138.99 46.1538 138.884 45.7587 138.884 45.2906C138.884 44.8877 138.962 44.5561 139.117 44.2957C139.272 44.0354 139.481 43.8293 139.744 43.6774C140.008 43.5255 140.302 43.4109 140.628 43.3334C140.953 43.2559 141.285 43.197 141.622 43.1567C142.05 43.1071 142.397 43.0668 142.664 43.0358C142.93 43.0017 143.124 42.9475 143.245 42.8731C143.366 42.7987 143.426 42.6779 143.426 42.5105V42.478C143.426 42.0719 143.312 41.7573 143.082 41.5342C142.856 41.311 142.518 41.1995 142.069 41.1995C141.601 41.1995 141.232 41.3033 140.962 41.5109C140.696 41.7155 140.511 41.9433 140.409 42.1944L139.103 41.8968C139.258 41.4629 139.484 41.1127 139.781 40.8461C140.082 40.5765 140.428 40.3812 140.818 40.2603C141.209 40.1364 141.619 40.0744 142.05 40.0744C142.335 40.0744 142.637 40.1085 142.957 40.1767C143.279 40.2417 143.58 40.3626 143.859 40.5393C144.141 40.7159 144.372 40.9685 144.551 41.2971C144.731 41.6225 144.821 42.0456 144.821 42.5663V47.3083H143.463V46.332H143.408C143.318 46.5118 143.183 46.6885 143.003 46.862C142.823 47.0356 142.593 47.1797 142.31 47.2944C142.028 47.4091 141.691 47.4664 141.297 47.4664ZM141.599 46.3506C141.984 46.3506 142.312 46.2747 142.585 46.1228C142.861 45.971 143.07 45.7726 143.212 45.5278C143.358 45.2798 143.431 45.0148 143.431 44.7328V43.8122C143.381 43.8618 143.285 43.9083 143.143 43.9517C143.003 43.992 142.844 44.0276 142.664 44.0586C142.484 44.0865 142.309 44.1129 142.138 44.1377C141.968 44.1594 141.825 44.178 141.711 44.1935C141.441 44.2276 141.195 44.2849 140.972 44.3655C140.752 44.4461 140.575 44.5623 140.442 44.7142C140.311 44.8629 140.246 45.0613 140.246 45.3092C140.246 45.6533 140.373 45.9136 140.628 46.0903C140.882 46.2639 141.206 46.3506 141.599 46.3506ZM149.68 47.4525C148.989 47.4525 148.394 47.296 147.895 46.9829C147.399 46.6668 147.018 46.2313 146.752 45.6765C146.485 45.1217 146.352 44.4864 146.352 43.7704C146.352 43.0451 146.488 42.4051 146.761 41.8503C147.034 41.2924 147.418 40.857 147.914 40.5439C148.41 40.2309 148.994 40.0744 149.667 40.0744C150.209 40.0744 150.692 40.1751 151.117 40.3766C151.542 40.5749 151.884 40.8539 152.144 41.2134C152.408 41.5729 152.564 41.9929 152.614 42.4733H151.261C151.187 42.1386 151.016 41.8503 150.75 41.6086C150.486 41.3668 150.133 41.2459 149.69 41.2459C149.302 41.2459 148.963 41.3482 148.672 41.5528C148.383 41.7542 148.159 42.0425 147.997 42.4175C147.836 42.7894 147.756 43.2296 147.756 43.7379C147.756 44.2586 147.835 44.708 147.993 45.0861C148.151 45.4642 148.374 45.7571 148.662 45.9648C148.954 46.1724 149.296 46.2763 149.69 46.2763C149.953 46.2763 150.192 46.2282 150.406 46.1321C150.623 46.033 150.804 45.8919 150.95 45.7091C151.098 45.5262 151.202 45.3061 151.261 45.0489H152.614C152.564 45.5107 152.414 45.9229 152.163 46.2856C151.912 46.6482 151.576 46.9333 151.154 47.141C150.736 47.3486 150.245 47.4525 149.68 47.4525ZM157.178 47.4525C156.475 47.4525 155.869 47.3022 155.36 47.0015C154.855 46.6978 154.465 46.2716 154.189 45.723C153.916 45.1713 153.78 44.5251 153.78 43.7843C153.78 43.0529 153.916 42.4082 154.189 41.8503C154.465 41.2924 154.849 40.857 155.342 40.5439C155.838 40.2309 156.417 40.0744 157.081 40.0744C157.484 40.0744 157.874 40.141 158.252 40.2743C158.63 40.4076 158.97 40.6168 159.27 40.9019C159.571 41.1871 159.808 41.5574 159.982 42.013C160.155 42.4656 160.242 43.0157 160.242 43.6635V44.1563H154.565V43.1149H158.88C158.88 42.7491 158.805 42.4253 158.657 42.1432C158.508 41.8581 158.299 41.6334 158.029 41.4691C157.763 41.3048 157.449 41.2227 157.09 41.2227C156.699 41.2227 156.358 41.3188 156.067 41.5109C155.779 41.7 155.556 41.948 155.398 42.2548C155.243 42.5585 155.165 42.8886 155.165 43.2451V44.0586C155.165 44.5359 155.249 44.942 155.416 45.2767C155.587 45.6114 155.824 45.8671 156.128 46.0438C156.431 46.2174 156.786 46.3041 157.192 46.3041C157.456 46.3041 157.696 46.267 157.913 46.1926C158.13 46.1151 158.317 46.0004 158.475 45.8485C158.633 45.6967 158.754 45.5092 158.838 45.286L160.154 45.5231C160.048 45.9105 159.859 46.2499 159.586 46.5413C159.317 46.8295 158.977 47.0542 158.568 47.2154C158.162 47.3734 157.699 47.4525 157.178 47.4525Z" fill="#9B9B9B"/>
</svg>
