<svg width="45" height="45" viewBox="0 0 45 45" fill="none" xmlns="http://www.w3.org/2000/svg">
<circle cx="22.3884" cy="22.682" r="22.2703" fill="#E0F4FE"/>
<path d="M22.3884 33.5919C28.4137 33.5919 33.2982 28.7073 33.2982 22.682C33.2982 16.6567 28.4137 11.7722 22.3884 11.7722C16.363 11.7722 11.4785 16.6567 11.4785 22.682C11.4785 28.7073 16.363 33.5919 22.3884 33.5919Z" stroke="#0D6EFD" stroke-width="1.63648"/>
<path d="M22.3887 16.1362V29.228M25.6616 19.9546C25.6616 18.4491 24.1964 17.2272 22.3887 17.2272C20.5809 17.2272 19.1157 18.4491 19.1157 19.9546C19.1157 21.4602 20.5809 22.6821 22.3887 22.6821C24.1964 22.6821 25.6616 23.904 25.6616 25.4095C25.6616 26.9151 24.1964 28.137 22.3887 28.137C20.5809 28.137 19.1157 26.9151 19.1157 25.4095" stroke="#0D6EFD" stroke-width="1.63648" stroke-linecap="round"/>
</svg>
